<svg xmlns="http://www.w3.org/2000/svg" width="1024" height="1536" viewBox="0 0 1024 1536" version="1.1"><path d="M 301 387.121 C 262.382 391.559, 228.216 408.522, 199.500 437.515 C 178.386 458.832, 164.361 485.457, 156.838 518.500 L 154.562 528.500 154.231 708 C 154.002 832.131, 154.235 891.030, 154.988 898.943 C 157.719 927.663, 166.958 954.518, 181.231 975.221 C 206.325 1011.621, 241.752 1034.764, 286 1043.662 C 293.735 1045.218, 309.073 1045.422, 456.500 1045.936 L 618.500 1046.500 679 1091.999 C 712.275 1117.023, 741.749 1138.623, 744.498 1139.999 C 748.510 1142.007, 750.988 1142.500, 757.068 1142.500 C 763.518 1142.500, 765.514 1142.054, 770.528 1139.490 C 780.429 1134.426, 784.604 1127.062, 786.963 1110.500 C 787.512 1106.650, 787.969 1085.884, 787.980 1064.354 L 788 1025.208 797.750 1018.376 C 809.689 1010.010, 829.473 990.498, 837.675 979 C 853.763 956.448, 863.249 933.388, 868.118 905 C 869.875 894.752, 870.682 543.673, 868.983 528.500 C 865.853 500.549, 857.942 478.500, 843.063 456.255 C 818.187 419.065, 771.636 391.743, 725.144 387.046 C 712.420 385.761, 312.224 385.832, 301 387.121 M 312.436 429.045 C 260.630 433.119, 215.010 469.029, 199.600 517.864 C 193.154 538.290, 193.500 527.008, 193.500 717 C 193.500 909.637, 193.121 898.656, 200.525 920.782 C 215.404 965.245, 250.884 995.463, 299 1004.649 C 307.857 1006.340, 319.498 1006.498, 471 1006.982 L 633.500 1007.500 663 1029.566 C 706.864 1062.375, 748.036 1093, 748.283 1093 C 748.402 1093.001, 748.375 1071.869, 748.222 1046.042 L 747.943 999.084 756.391 995.052 C 793.759 977.217, 819.294 945.110, 828.239 904.712 L 830.500 894.500 830.500 721 C 830.500 535.167, 830.611 539.548, 825.421 521.395 C 822.012 509.474, 812.383 489.688, 805.613 480.693 C 795.051 466.660, 775.619 450.382, 760.084 442.556 C 752.129 438.548, 736.800 433.213, 726.467 430.856 L 716.500 428.582 519.500 428.418 C 411.150 428.328, 317.971 428.610, 312.436 429.045 M 499.284 460.892 C 477.124 469.112, 467.793 495.032, 479.050 517.098 C 481.980 522.841, 488.189 529.292, 493.499 532.109 L 498 534.497 498 552.248 L 498 570 439.750 570.017 C 377.164 570.036, 374.729 570.202, 362.035 575.330 C 351.878 579.433, 344.931 584.107, 336.519 592.500 C 327.427 601.571, 322.177 609.893, 318.224 621.500 L 315.500 629.500 315.193 717 C 314.858 812.347, 314.963 814.628, 320.356 829 C 330.225 855.298, 354.423 874.293, 384 878.959 C 388.177 879.618, 433.793 879.988, 511.619 879.992 C 644.545 880.001, 642.146 880.099, 657.480 874.008 C 678.526 865.648, 693.814 851.478, 702.850 831.958 C 709.813 816.914, 709.500 822.114, 709.500 721.500 L 709.500 630.500 706.203 621.054 C 704.390 615.859, 701.321 608.998, 699.384 605.808 C 689.015 588.740, 671.505 576.458, 651.107 571.947 C 643.201 570.198, 637.795 570.042, 584.750 570.022 L 527 570 527.020 552.250 L 527.040 534.500 532.117 531.500 C 538.860 527.516, 543.548 522.172, 547.362 514.123 C 550.229 508.073, 550.500 506.635, 550.500 497.500 C 550.500 488.372, 550.229 486.933, 547.392 481 C 543.533 472.932, 537.431 466.837, 529.102 462.733 C 523.599 460.021, 521.429 459.536, 513.602 459.269 C 506.496 459.026, 503.356 459.382, 499.284 460.892 M 383.754 610.075 C 371.789 612.925, 360.718 621.744, 355.272 632.764 L 351.500 640.397 351.500 725.948 L 351.500 811.500 354.717 818.074 C 358.789 826.395, 366.769 834.071, 375.762 838.318 L 382.500 841.500 511.500 841.500 L 640.500 841.500 647.288 838.285 C 660.404 832.072, 670.511 819.424, 672.995 806.114 C 673.613 802.799, 673.994 771.450, 673.985 724.614 C 673.969 641.774, 673.932 641.157, 668.309 630.826 C 664.627 624.062, 656.245 616.484, 648.259 612.701 L 641.500 609.500 514.500 609.341 C 442.865 609.251, 385.867 609.571, 383.754 610.075 M 278.718 662.092 C 270.813 663.953, 263.350 669.567, 259.691 676.405 C 257.559 680.389, 257.492 681.559, 257.207 719.714 C 256.920 757.964, 256.966 759.050, 259.064 763.927 C 262.006 770.765, 269.301 777.418, 276.058 779.425 C 278.976 780.291, 284.431 781, 288.182 781 L 295 781 295 721 L 295 661 288.750 661.100 C 285.313 661.156, 280.798 661.602, 278.718 662.092 M 730 720.897 L 730 781 736.962 781 C 749.574 781, 759.608 775.464, 764.784 765.649 L 767.500 760.500 767.796 723.665 C 768.127 682.594, 767.801 679.828, 761.698 671.827 C 756.656 665.215, 748.715 661.588, 738.323 661.147 L 730 660.795 730 720.897 M 426.882 671.319 C 413.276 676.412, 406.246 687.518, 407.221 702.379 C 408.567 722.904, 427.355 734.925, 445.732 727.020 C 467.790 717.531, 468.880 683.785, 447.472 673.093 C 441.734 670.228, 432.032 669.392, 426.882 671.319 M 581.173 671.905 C 574.600 674.175, 568.815 679.643, 565.201 687 C 562.921 691.642, 562.511 693.748, 562.568 700.500 C 562.674 713.077, 567.632 721.716, 577.521 726.554 C 582.310 728.897, 583.882 729.167, 590.729 728.821 C 599.822 728.362, 604.726 726.315, 610.164 720.712 C 617.411 713.244, 620.055 699.389, 616.324 688.437 C 613.924 681.394, 605.958 673.659, 598.966 671.583 C 592.111 669.547, 587.773 669.625, 581.173 671.905 M 455.388 760.980 C 450.134 763.103, 447.608 770.208, 449.933 776.324 C 452.981 784.339, 466.861 794.050, 482.876 799.370 C 506.912 807.355, 532.021 805.623, 554 794.463 C 563.181 789.802, 572.029 782.343, 574.985 776.773 C 577.358 772.301, 577.403 771.900, 575.985 767.843 C 574.106 762.468, 569.526 759.491, 564.568 760.421 C 562.688 760.774, 558.367 763.327, 554.842 766.167 C 532.900 783.849, 498.062 785.676, 476.500 770.276 C 461.400 759.490, 460.287 759.001, 455.388 760.980 M 280.030 916.113 C 264.698 922.232, 262.294 943.076, 275.836 952.487 C 279.612 955.111, 281.043 955.500, 286.909 955.500 C 292.543 955.500, 294.310 955.061, 297.700 952.817 C 303.033 949.288, 306.014 944.267, 306.695 937.662 C 307.663 928.284, 303.477 920.484, 295.541 916.880 C 291.166 914.892, 283.979 914.537, 280.030 916.113 M 343.204 917.128 C 332.872 922.242, 329.206 934.423, 334.784 945.101 C 337.038 949.416, 338.584 950.962, 342.899 953.216 C 349.538 956.684, 354.779 956.782, 361.686 953.566 C 376.817 946.521, 376.728 923.778, 361.541 916.880 C 356.040 914.381, 348.549 914.482, 343.204 917.128 M 409.500 916.896 C 397.780 922.322, 393.892 936.131, 400.951 947.261 C 407.699 957.902, 423.541 958.785, 432.370 949.012 C 444.372 935.728, 435.622 915.044, 418 915.044 C 415.525 915.044, 411.700 915.877, 409.500 916.896" stroke="none" fill="#fafaf4" fill-rule="evenodd"/><path d="M 265 264.073 C 227.786 265.793, 194.639 273.838, 164.500 288.466 C 141.908 299.431, 121.615 314.314, 102.958 333.602 C 70.532 367.125, 52.839 404.051, 44.791 455 L 42.500 469.500 42.500 752 C 42.500 1018.217, 42.603 1035.221, 44.291 1047 C 49.045 1080.172, 56.515 1105.098, 69.037 1129.573 C 98.710 1187.568, 155.575 1228.055, 229.079 1243.517 C 253.676 1248.691, 237.529 1248.378, 499.500 1248.761 C 667.611 1249.006, 747.376 1248.781, 758.320 1248.029 C 783.959 1246.267, 807.386 1241.528, 830.350 1233.457 C 844.563 1228.462, 872.522 1214.475, 885 1206.118 C 935.992 1171.968, 967.506 1121.889, 978.242 1057.945 L 980.500 1044.500 980.500 753.500 C 980.500 478.652, 980.400 461.834, 978.704 450.500 C 975.111 426.491, 968.754 405.589, 958.869 385.287 C 945.717 358.273, 927.988 335.898, 904.500 316.670 C 867.337 286.246, 825.920 269.469, 777 265.020 C 763.626 263.804, 289.793 262.928, 265 264.073 M 301 387.121 C 262.382 391.559, 228.216 408.522, 199.500 437.515 C 178.386 458.832, 164.361 485.457, 156.838 518.500 L 154.562 528.500 154.231 708 C 154.002 832.131, 154.235 891.030, 154.988 898.943 C 157.719 927.663, 166.958 954.518, 181.231 975.221 C 206.325 1011.621, 241.752 1034.764, 286 1043.662 C 293.735 1045.218, 309.073 1045.422, 456.500 1045.936 L 618.500 1046.500 679 1091.999 C 712.275 1117.023, 741.749 1138.623, 744.498 1139.999 C 748.510 1142.007, 750.988 1142.500, 757.068 1142.500 C 763.518 1142.500, 765.514 1142.054, 770.528 1139.490 C 780.429 1134.426, 784.604 1127.062, 786.963 1110.500 C 787.512 1106.650, 787.969 1085.884, 787.980 1064.354 L 788 1025.208 797.750 1018.376 C 809.689 1010.010, 829.473 990.498, 837.675 979 C 853.763 956.448, 863.249 933.388, 868.118 905 C 869.875 894.752, 870.682 543.673, 868.983 528.500 C 865.853 500.549, 857.942 478.500, 843.063 456.255 C 818.187 419.065, 771.636 391.743, 725.144 387.046 C 712.420 385.761, 312.224 385.832, 301 387.121 M 312.436 429.045 C 260.630 433.119, 215.010 469.029, 199.600 517.864 C 193.154 538.290, 193.500 527.008, 193.500 717 C 193.500 909.637, 193.121 898.656, 200.525 920.782 C 215.404 965.245, 250.884 995.463, 299 1004.649 C 307.857 1006.340, 319.498 1006.498, 471 1006.982 L 633.500 1007.500 663 1029.566 C 706.864 1062.375, 748.036 1093, 748.283 1093 C 748.402 1093.001, 748.375 1071.869, 748.222 1046.042 L 747.943 999.084 756.391 995.052 C 793.759 977.217, 819.294 945.110, 828.239 904.712 L 830.500 894.500 830.500 721 C 830.500 535.167, 830.611 539.548, 825.421 521.395 C 822.012 509.474, 812.383 489.688, 805.613 480.693 C 795.051 466.660, 775.619 450.382, 760.084 442.556 C 752.129 438.548, 736.800 433.213, 726.467 430.856 L 716.500 428.582 519.500 428.418 C 411.150 428.328, 317.971 428.610, 312.436 429.045 M 499.284 460.892 C 477.124 469.112, 467.793 495.032, 479.050 517.098 C 481.980 522.841, 488.189 529.292, 493.499 532.109 L 498 534.497 498 552.248 L 498 570 439.750 570.017 C 377.164 570.036, 374.729 570.202, 362.035 575.330 C 351.878 579.433, 344.931 584.107, 336.519 592.500 C 327.427 601.571, 322.177 609.893, 318.224 621.500 L 315.500 629.500 315.193 717 C 314.858 812.347, 314.963 814.628, 320.356 829 C 330.225 855.298, 354.423 874.293, 384 878.959 C 388.177 879.618, 433.793 879.988, 511.619 879.992 C 644.545 880.001, 642.146 880.099, 657.480 874.008 C 678.526 865.648, 693.814 851.478, 702.850 831.958 C 709.813 816.914, 709.500 822.114, 709.500 721.500 L 709.500 630.500 706.203 621.054 C 704.390 615.859, 701.321 608.998, 699.384 605.808 C 689.015 588.740, 671.505 576.458, 651.107 571.947 C 643.201 570.198, 637.795 570.042, 584.750 570.022 L 527 570 527.020 552.250 L 527.040 534.500 532.117 531.500 C 538.860 527.516, 543.548 522.172, 547.362 514.123 C 550.229 508.073, 550.500 506.635, 550.500 497.500 C 550.500 488.372, 550.229 486.933, 547.392 481 C 543.533 472.932, 537.431 466.837, 529.102 462.733 C 523.599 460.021, 521.429 459.536, 513.602 459.269 C 506.496 459.026, 503.356 459.382, 499.284 460.892 M 383.754 610.075 C 371.789 612.925, 360.718 621.744, 355.272 632.764 L 351.500 640.397 351.500 725.948 L 351.500 811.500 354.717 818.074 C 358.789 826.395, 366.769 834.071, 375.762 838.318 L 382.500 841.500 511.500 841.500 L 640.500 841.500 647.288 838.285 C 660.404 832.072, 670.511 819.424, 672.995 806.114 C 673.613 802.799, 673.994 771.450, 673.985 724.614 C 673.969 641.774, 673.932 641.157, 668.309 630.826 C 664.627 624.062, 656.245 616.484, 648.259 612.701 L 641.500 609.500 514.500 609.341 C 442.865 609.251, 385.867 609.571, 383.754 610.075 M 278.718 662.092 C 270.813 663.953, 263.350 669.567, 259.691 676.405 C 257.559 680.389, 257.492 681.559, 257.207 719.714 C 256.920 757.964, 256.966 759.050, 259.064 763.927 C 262.006 770.765, 269.301 777.418, 276.058 779.425 C 278.976 780.291, 284.431 781, 288.182 781 L 295 781 295 721 L 295 661 288.750 661.100 C 285.313 661.156, 280.798 661.602, 278.718 662.092 M 730 720.897 L 730 781 736.962 781 C 749.574 781, 759.608 775.464, 764.784 765.649 L 767.500 760.500 767.796 723.665 C 768.127 682.594, 767.801 679.828, 761.698 671.827 C 756.656 665.215, 748.715 661.588, 738.323 661.147 L 730 660.795 730 720.897 M 426.882 671.319 C 413.276 676.412, 406.246 687.518, 407.221 702.379 C 408.567 722.904, 427.355 734.925, 445.732 727.020 C 467.790 717.531, 468.880 683.785, 447.472 673.093 C 441.734 670.228, 432.032 669.392, 426.882 671.319 M 581.173 671.905 C 574.600 674.175, 568.815 679.643, 565.201 687 C 562.921 691.642, 562.511 693.748, 562.568 700.500 C 562.674 713.077, 567.632 721.716, 577.521 726.554 C 582.310 728.897, 583.882 729.167, 590.729 728.821 C 599.822 728.362, 604.726 726.315, 610.164 720.712 C 617.411 713.244, 620.055 699.389, 616.324 688.437 C 613.924 681.394, 605.958 673.659, 598.966 671.583 C 592.111 669.547, 587.773 669.625, 581.173 671.905 M 455.388 760.980 C 450.134 763.103, 447.608 770.208, 449.933 776.324 C 452.981 784.339, 466.861 794.050, 482.876 799.370 C 506.912 807.355, 532.021 805.623, 554 794.463 C 563.181 789.802, 572.029 782.343, 574.985 776.773 C 577.358 772.301, 577.403 771.900, 575.985 767.843 C 574.106 762.468, 569.526 759.491, 564.568 760.421 C 562.688 760.774, 558.367 763.327, 554.842 766.167 C 532.900 783.849, 498.062 785.676, 476.500 770.276 C 461.400 759.490, 460.287 759.001, 455.388 760.980 M 280.030 916.113 C 264.698 922.232, 262.294 943.076, 275.836 952.487 C 279.612 955.111, 281.043 955.500, 286.909 955.500 C 292.543 955.500, 294.310 955.061, 297.700 952.817 C 303.033 949.288, 306.014 944.267, 306.695 937.662 C 307.663 928.284, 303.477 920.484, 295.541 916.880 C 291.166 914.892, 283.979 914.537, 280.030 916.113 M 343.204 917.128 C 332.872 922.242, 329.206 934.423, 334.784 945.101 C 337.038 949.416, 338.584 950.962, 342.899 953.216 C 349.538 956.684, 354.779 956.782, 361.686 953.566 C 376.817 946.521, 376.728 923.778, 361.541 916.880 C 356.040 914.381, 348.549 914.482, 343.204 917.128 M 409.500 916.896 C 397.780 922.322, 393.892 936.131, 400.951 947.261 C 407.699 957.902, 423.541 958.785, 432.370 949.012 C 444.372 935.728, 435.622 915.044, 418 915.044 C 415.525 915.044, 411.700 915.877, 409.500 916.896" stroke="none" fill="#4e60b8" fill-rule="evenodd"/></svg>